<svg width="134" height="32" viewBox="0 0 134 32" fill="none" xmlns="http://www.w3.org/2000/svg">
<g filter="url(#filter0_i_1_1552)">
<path d="M0 12.8C0 8.31958 0 6.07937 0.871948 4.36808C1.63893 2.86278 2.86278 1.63893 4.36808 0.871948C6.07937 0 8.31958 0 12.8 0H19.2C23.6804 0 25.9206 0 27.6319 0.871948C29.1372 1.63893 30.3611 2.86278 31.1281 4.36808C32 6.07937 32 8.31958 32 12.8V19.2C32 23.6804 32 25.9206 31.1281 27.6319C30.3611 29.1372 29.1372 30.3611 27.6319 31.1281C25.9206 32 23.6804 32 19.2 32H12.8C8.31958 32 6.07937 32 4.36808 31.1281C2.86278 30.3611 1.63893 29.1372 0.871948 27.6319C0 25.9206 0 23.6804 0 19.2V12.8Z" fill="#0C9790"/>
<path d="M27.9994 12.0595C27.9994 9.66916 25.9476 8 23.0105 8C20.6224 8 18.9764 9.16883 17.0703 10.5224C16.7514 10.7486 16.4217 10.9831 16.0818 11.2163C15.1012 11.889 14.0822 12.545 13.1525 13.1247C13.0596 13.1827 12.9439 13.1904 12.8444 13.1454C12.1047 12.8121 10.6397 12.278 8.83848 12.278C4.83918 12.278 4 14.4552 4 16.2818C4 17.7325 4.87934 18.9404 6.54212 19.7747C7.05342 20.0311 7.56233 20.2135 7.97712 20.3378C8.29961 20.4349 8.55556 20.6771 8.66405 20.9921C8.77255 21.3071 8.90082 21.6446 9.05967 21.9916C9.2353 22.3753 9.44509 22.7962 9.68186 23.2433C9.93541 23.7205 10.4371 24 10.9556 24C11.1426 24 11.3321 23.9639 11.5125 23.8875C14.1703 22.7643 18.3368 21.3651 23.095 21.0773C23.9216 21.027 24.5486 20.3467 24.5228 19.5278C24.5108 19.1447 24.491 18.7877 24.4646 18.4673C24.4449 18.2269 24.4185 17.9895 24.3909 17.7704C24.3388 17.3547 24.5054 16.942 24.8339 16.6774C25.1624 16.4127 25.5394 16.0906 25.923 15.7187C27.3011 14.3835 28 13.1525 28 12.0595H27.9994ZM11.6336 22.4285C11.5059 22.4789 11.3692 22.5079 11.2319 22.4978C10.8981 22.4729 10.5942 22.2675 10.4575 21.9489C10.385 21.7796 10.3166 21.6162 10.2453 21.4616C10.0949 21.133 9.96958 20.7961 9.87367 20.5107C9.78136 20.2354 9.90664 19.9346 10.1698 19.8067C10.7572 19.5207 11.7127 19.1737 12.637 18.9321C12.7263 18.909 12.8042 18.8516 12.8456 18.7705C13.1842 18.1097 12.6406 17.5934 12.1239 17.7355C12.0909 17.7444 11.3045 17.9599 10.4851 18.2713C9.99895 18.4561 9.60873 18.6307 9.30183 18.8048C8.85407 19.0588 8.31819 19.1121 7.83446 18.9327C6.72374 18.5206 5.30133 17.713 5.30133 16.283C5.30133 15.0183 5.70294 13.567 8.83608 13.567C9.61053 13.567 10.3172 13.6843 10.9089 13.8364C11.1936 13.9099 11.2475 14.2864 10.9946 14.4362C10.1908 14.9129 9.67287 15.206 9.65968 15.2137C9.34739 15.3901 9.23889 15.7839 9.41752 16.0924C9.59614 16.4009 9.99476 16.508 10.3071 16.3316C10.328 16.3197 11.6378 15.5778 13.3563 14.5185C13.3653 14.5132 13.3743 14.5073 13.3833 14.502C14.4448 13.8477 15.6592 13.0732 16.8221 12.2762C17.171 12.037 17.5054 11.7996 17.8285 11.5704C19.6226 10.2968 21.0396 9.29021 23.0081 9.29021C25.2127 9.29021 26.6939 10.404 26.6939 12.0619C26.6939 13.265 25.0749 14.8253 23.9539 15.7247C23.647 15.971 23.2502 16.0764 22.8576 16.0266C22.7449 16.0124 22.6316 16 22.5183 15.9893C22.2792 15.9674 22.1413 15.7105 22.257 15.502C22.8169 14.4972 23.0518 13.8785 23.065 13.8435C23.1897 13.5102 23.0183 13.1407 22.6808 13.017C22.3439 12.8926 21.9687 13.0625 21.8428 13.3953C21.8392 13.4054 21.4718 14.3634 20.5517 15.8324C20.4959 15.9212 20.4 15.9787 20.2939 15.987C20.0655 16.0047 19.8899 15.7922 19.951 15.5749C20.1117 15.0047 20.1393 14.7435 20.1429 14.7015C20.1734 14.3474 19.9085 14.0312 19.5494 14.001C19.1892 13.9714 18.8751 14.229 18.8445 14.5837C18.8445 14.5884 18.7936 15.0118 18.4333 16.0574C18.3944 16.1711 18.2955 16.2564 18.1762 16.2801C17.3364 16.4435 16.7747 16.6087 16.7154 16.6265C16.3707 16.7295 16.1759 17.0883 16.2802 17.4288C16.3839 17.7686 16.7472 17.9623 17.0924 17.8592C17.108 17.8545 17.7764 17.6591 18.748 17.4874L18.778 17.4832C18.8349 17.4785 19.1298 17.424 19.143 17.4217C20.0739 17.2778 21.2092 17.1747 22.3056 17.2642C22.7197 17.2979 23.0548 17.6111 23.1046 18.0185C23.1262 18.1973 23.1459 18.3856 23.1621 18.5751C23.1765 18.748 23.1885 18.9327 23.1987 19.1275C23.2089 19.3223 23.1543 19.7486 22.709 19.7694C22.3151 19.7877 20.5912 19.7966 17.141 20.6131C14.5084 21.236 12.1604 22.2225 11.6318 22.4315L11.6336 22.4285Z" fill="white"/>
</g>
<path d="M63.6138 22.2892C61.6908 22.2892 60.3637 20.6314 60.3637 18.2661C60.3637 15.9007 61.7123 14.2869 63.6578 14.2869C65.6034 14.2869 66.8854 15.9007 66.8854 18.222C66.8854 20.5434 65.5368 22.2892 63.6138 22.2892ZM63.1274 24.5C64.476 24.5 65.4928 23.8805 66.2669 22.8197C66.5321 22.4664 66.8864 22.5545 66.8864 23.0408V23.6603C66.8864 23.9921 67.1516 24.1693 67.4834 24.1693H68.9426C69.2958 24.1693 69.4955 23.9706 69.4955 23.6163V13.0049C69.4955 12.6516 69.2968 12.4519 68.9426 12.4519H67.4394C67.0861 12.4519 66.8864 12.6506 66.8864 13.0049V13.2035C66.8864 13.6674 66.5987 13.823 66.2669 13.4462C65.4488 12.5175 64.3214 12.0976 63.0393 12.0976C59.9224 12.0976 57.6891 14.6176 57.6891 18.2435C57.6891 21.8694 59.9664 24.5 63.1274 24.5ZM101.439 22.2892C99.5163 22.2892 98.1893 20.6314 98.1893 18.2661C98.1893 15.9007 99.5378 14.2869 101.483 14.2869C103.429 14.2869 104.711 15.9007 104.711 18.222C104.711 20.5434 103.362 22.2892 101.439 22.2892ZM100.953 24.5C102.302 24.5 103.318 23.8805 104.092 22.8197C104.358 22.4664 104.712 22.5545 104.712 23.0408V23.6603C104.712 23.9921 104.977 24.1693 105.309 24.1693H106.768C107.121 24.1693 107.321 23.9706 107.321 23.6163V13.0049C107.321 12.6516 107.122 12.4519 106.768 12.4519H105.265C104.912 12.4519 104.712 12.6506 104.712 13.0049V13.2035C104.712 13.6674 104.424 13.823 104.092 13.4462C103.274 12.5175 102.147 12.0976 100.865 12.0976C97.7479 12.0976 95.5147 14.6176 95.5147 18.2435C95.5147 21.8694 97.792 24.5 100.953 24.5ZM114.681 22.2892C112.758 22.2892 111.431 20.6314 111.431 18.2661C111.431 15.9007 112.78 14.2869 114.725 14.2869C116.671 14.2869 117.953 15.9007 117.953 18.222C117.953 20.5434 116.604 22.2892 114.681 22.2892ZM114.195 24.5C115.544 24.5 116.56 23.8805 117.335 22.8197C117.6 22.4664 117.954 22.5545 117.954 23.0408V23.6603C117.954 23.9921 118.219 24.1693 118.551 24.1693H120.01C120.363 24.1693 120.563 23.9706 120.563 23.6163V8.14101C120.563 7.78774 120.364 7.58806 120.01 7.58806H118.507C118.154 7.58806 117.954 7.78671 117.954 8.14101V13.2035C117.954 13.6674 117.666 13.823 117.335 13.4462C116.516 12.5175 115.389 12.0976 114.107 12.0976C110.99 12.0976 108.757 14.6176 108.757 18.2435C108.757 21.8694 111.034 24.5 114.195 24.5ZM129.958 17.0055H125.271C124.873 17.0055 124.652 16.7629 124.807 16.3645C125.316 15.0825 126.355 14.3084 127.703 14.3084C129.052 14.3084 129.981 15.0825 130.423 16.386C130.556 16.7618 130.356 17.0055 129.959 17.0055H129.958ZM127.923 24.5C130.466 24.5 132.322 23.218 133.074 21.0513C133.207 20.6755 133.007 20.4543 132.61 20.4543H131.174C130.864 20.4543 130.665 20.5874 130.532 20.8741C130.046 21.7803 129.117 22.2892 127.946 22.2892C126.155 22.2892 124.94 21.1618 124.585 19.4375C124.497 19.0617 124.718 18.8405 125.094 18.8405H132.743C133.097 18.8405 133.296 18.6419 133.296 18.2876V18.221C133.296 14.419 131.019 12.0976 127.703 12.0976C124.388 12.0976 121.889 14.4855 121.889 18.3541C121.889 21.936 124.343 24.5 127.924 24.5H127.923ZM84.5715 24.1682H86.0746C86.4279 24.1682 86.6276 23.9696 86.6276 23.6153V17.0711C86.6276 15.5454 87.799 14.3739 89.5019 14.3739C90.9611 14.3739 91.8232 15.2361 91.8232 16.5407V23.6153C91.8232 23.9686 92.0219 24.1682 92.3762 24.1682H93.8794C94.2326 24.1682 94.4323 23.9696 94.4323 23.6153V16.4086C94.4323 13.778 92.6199 12.0976 90.5197 12.0976C88.9059 12.0976 88.0878 12.6506 87.2696 13.4687C86.9379 13.822 86.6286 13.778 86.6286 13.2916V12.9598C86.6286 12.6066 86.3859 12.4509 86.0542 12.4509H84.5725C84.2192 12.4509 84.0195 12.6496 84.0195 13.0039V23.6153C84.0195 23.9686 84.2182 24.1682 84.5725 24.1682H84.5715ZM79.8632 24.1682H81.3664C81.7197 24.1682 81.9194 23.9696 81.9194 23.6153V13.0039C81.9194 12.6506 81.7207 12.4509 81.3664 12.4509H79.8632C79.51 12.4509 79.3103 12.6496 79.3103 13.0039V23.6153C79.3103 23.9686 79.5089 24.1682 79.8632 24.1682ZM80.6148 10.8822C81.5876 10.8822 82.2952 10.1306 82.2952 9.18034C82.2952 8.23009 81.5876 7.5 80.6148 7.5C79.642 7.5 78.9345 8.22907 78.9345 9.18034C78.9345 10.1316 79.6636 10.8822 80.6148 10.8822ZM71.5946 24.1682H73.0978C73.4511 24.1682 73.6508 23.9696 73.6508 23.6153V18.3756C73.6508 16.1649 75.0874 14.8603 77.5194 14.8603C77.8071 14.8603 77.9617 14.6617 77.9617 14.3074V12.8707C77.9617 12.5175 77.8071 12.3178 77.5194 12.3178C75.9496 12.3178 75.0874 12.8707 74.2693 13.9316C73.9815 14.3299 73.6498 14.3074 73.6498 13.7985V12.9588C73.6498 12.6055 73.4071 12.4499 73.0753 12.4499H71.5936C71.2404 12.4499 71.0407 12.6485 71.0407 13.0028V23.6143C71.0407 23.9675 71.2393 24.1672 71.5936 24.1672L71.5946 24.1682Z" fill="#182120"/>
<path d="M40.7762 24.1682H41.879C42.3644 24.1682 42.6511 23.8815 42.6511 23.3962V15.7399C42.6511 14.9893 43.247 14.8357 43.5337 15.5638L46.4899 23.0439C46.7767 23.7945 47.3061 24.1693 48.1007 24.1693C48.8953 24.1693 49.4021 23.7945 49.6888 23.0439L52.645 15.5423C52.9318 14.8142 53.5277 14.9689 53.5277 15.7184V23.3972C53.5277 23.8825 53.8144 24.1693 54.2998 24.1693H55.4026C55.888 24.1693 56.1747 23.8825 56.1747 23.3972V10.5996C56.1747 9.38616 55.5787 8.72365 54.4974 8.72365C53.4161 8.72365 52.7321 9.20901 52.3348 10.2023L48.0986 20.9919L43.8399 10.2023C43.4426 9.20901 42.7586 8.72365 41.6773 8.72365H41.6332C40.5744 8.72365 40 9.38513 40 10.5996V23.3972C40 23.8825 40.2867 24.1693 40.7721 24.1693L40.7762 24.1682Z" fill="#182120"/>
<defs>
<filter id="filter0_i_1_1552" x="0" y="-0.5" width="32" height="32.5" filterUnits="userSpaceOnUse" color-interpolation-filters="sRGB">
<feFlood flood-opacity="0" result="BackgroundImageFix"/>
<feBlend mode="normal" in="SourceGraphic" in2="BackgroundImageFix" result="shape"/>
<feColorMatrix in="SourceAlpha" type="matrix" values="0 0 0 0 0 0 0 0 0 0 0 0 0 0 0 0 0 0 127 0" result="hardAlpha"/>
<feOffset dy="-0.5"/>
<feGaussianBlur stdDeviation="0.25"/>
<feComposite in2="hardAlpha" operator="arithmetic" k2="-1" k3="1"/>
<feColorMatrix type="matrix" values="0 0 0 0 0.0392157 0 0 0 0 0.0509804 0 0 0 0 0.0705882 0 0 0 0.1 0"/>
<feBlend mode="normal" in2="shape" result="effect1_innerShadow_1_1552"/>
</filter>
</defs>
</svg>
