<svg width="73" height="49" viewBox="0 0 73 49" fill="none" xmlns="http://www.w3.org/2000/svg">
<path d="M72.9982 12.3477C72.9982 5.07702 66.7573 0 57.8235 0C50.5598 0 45.5532 3.55518 39.7554 7.67227C38.7854 8.36025 37.7826 9.07345 36.7489 9.78304C33.7661 11.829 30.6666 13.8245 27.8388 15.5877C27.5562 15.7642 27.2043 15.7876 26.9017 15.6507C24.6518 14.6367 20.1958 13.0122 14.7171 13.0122C2.55251 13.0122 0 19.6345 0 25.1906C0 29.6031 2.67467 33.2771 7.73229 35.8147C9.2875 36.5946 10.8354 37.1493 12.0971 37.5275C13.078 37.8228 13.8565 38.5595 14.1865 39.5176C14.5165 40.4757 14.9067 41.5023 15.3898 42.5577C15.924 43.7247 16.5622 45.0052 17.2823 46.365C18.0535 47.8166 19.5796 48.6667 21.1567 48.6667C21.7255 48.6667 22.3017 48.5568 22.8504 48.3245C30.9346 44.908 43.6078 40.6522 58.0806 39.7769C60.5948 39.6238 62.5019 37.5545 62.4235 35.0637C62.387 33.8985 62.3269 32.8125 62.2466 31.8381C62.1865 31.1069 62.1063 30.3847 62.0224 29.7183C61.8638 28.454 62.3706 27.1987 63.3697 26.3937C64.3689 25.5886 65.5157 24.6089 66.6825 23.4779C70.8741 19.4166 73 15.6723 73 12.3477H72.9982ZM23.2187 43.8868C22.8304 44.0399 22.4147 44.1281 21.9972 44.0975C20.9816 44.0219 20.0573 43.3969 19.6416 42.428C19.421 41.9129 19.2131 41.4158 18.9962 40.9458C18.5385 39.9462 18.1575 38.9215 17.8658 38.0534C17.585 37.2159 17.966 36.301 18.7664 35.912C20.5532 35.0421 23.4594 33.9867 26.2708 33.2519C26.5425 33.1817 26.7795 33.007 26.9053 32.7602C27.9354 30.7503 26.2818 29.1798 24.7101 29.6121C24.6099 29.6391 22.2178 30.2947 19.7254 31.242C18.2468 31.8039 17.0599 32.3352 16.1264 32.8647C14.7645 33.6373 13.1345 33.7994 11.6632 33.2537C8.28472 32.0002 3.95821 29.5436 3.95821 25.1942C3.95821 21.3473 5.17977 16.933 14.7098 16.933C17.0654 16.933 19.2149 17.2896 21.0145 17.7525C21.8805 17.9758 22.0446 19.1212 21.2752 19.5769C18.8302 21.0267 17.255 21.9182 17.2149 21.9416C16.265 22.4783 15.935 23.676 16.4783 24.6143C17.0216 25.5526 18.234 25.8786 19.1839 25.3419C19.2478 25.3059 23.2315 23.0492 28.4587 19.8272C28.486 19.811 28.5134 19.793 28.5407 19.7768C31.7697 17.7867 35.4635 15.431 39.0006 13.0068C40.0617 12.2792 41.079 11.557 42.0617 10.86C47.5186 6.98608 51.8287 3.92438 57.8162 3.92438C64.522 3.92438 69.0272 7.31207 69.0272 12.3549C69.0272 16.0145 64.1027 20.7601 60.6932 23.4959C59.7598 24.2451 58.5528 24.5657 57.3586 24.4144C57.0158 24.3712 56.6712 24.3333 56.3266 24.3009C55.5992 24.2343 55.1798 23.4526 55.5317 22.8187C57.2346 19.7624 57.9493 17.8803 57.9894 17.7741C58.3686 16.7601 57.8472 15.6363 56.8207 15.2599C55.7961 14.8817 54.6547 15.3986 54.2719 16.4107C54.2609 16.4413 53.1433 19.3554 50.3446 23.8237C50.1751 24.0938 49.8834 24.2685 49.5607 24.2937C48.866 24.3477 48.3318 23.7012 48.5178 23.0402C49.0064 21.3059 49.0903 20.5116 49.1012 20.3837C49.1942 19.3067 48.3883 18.345 47.2962 18.2532C46.2005 18.1631 45.2451 18.9465 45.1521 20.0253C45.1521 20.0397 44.9971 21.3275 43.9014 24.508C43.7829 24.8538 43.482 25.1132 43.1192 25.1852C40.5649 25.6823 38.8565 26.1848 38.676 26.2388C37.6277 26.5522 37.0351 27.6436 37.3524 28.6792C37.6678 29.7129 38.7727 30.3019 39.8228 29.9885C39.8702 29.9741 41.9031 29.3797 44.8586 28.8575L44.9497 28.8448C45.1229 28.8304 46.02 28.6647 46.0601 28.6575C48.8915 28.2199 52.3447 27.9065 55.6794 28.1785C56.9392 28.2811 57.9584 29.2339 58.1097 30.4729C58.1754 31.0168 58.2356 31.5896 58.2848 32.1659C58.3285 32.6918 58.365 33.2537 58.396 33.8462C58.427 34.4388 58.2611 35.7355 56.9064 35.7985C55.7086 35.8543 50.465 35.8814 39.9705 38.3649C31.9629 40.2596 24.8214 43.2601 23.2133 43.8958L23.2187 43.8868Z" fill="white"/>
</svg>
